<?xml version="1.0" encoding="UTF-8" standalone="no"?>
<!-- Created with Inkscape (http://www.inkscape.org/) -->

<svg
   width="1080"
   height="1080"
   viewBox="0 0 285.75 285.75"
   version="1.1"
   id="svg1"
   xml:space="preserve"
   inkscape:version="1.4.2 (ebf0e940, 2025-05-08)"
   sodipodi:docname="ServiceIt1.svg"
   xmlns:inkscape="http://www.inkscape.org/namespaces/inkscape"
   xmlns:sodipodi="http://sodipodi.sourceforge.net/DTD/sodipodi-0.dtd"
   xmlns="http://www.w3.org/2000/svg"
   xmlns:svg="http://www.w3.org/2000/svg"><sodipodi:namedview
     id="namedview1"
     pagecolor="#ffffff"
     bordercolor="#000000"
     borderopacity="0.25"
     inkscape:showpageshadow="2"
     inkscape:pageopacity="0.0"
     inkscape:pagecheckerboard="0"
     inkscape:deskcolor="#d1d1d1"
     inkscape:document-units="mm"
     inkscape:zoom="0.50016297"
     inkscape:cx="596.80548"
     inkscape:cy="480.84327"
     inkscape:window-width="1464"
     inkscape:window-height="942"
     inkscape:window-x="0"
     inkscape:window-y="31"
     inkscape:window-maximized="0"
     inkscape:current-layer="svg1" /><defs
     id="defs1" /><g
     inkscape:label="Layer 1"
     inkscape:groupmode="layer"
     id="layer1"><path
       style="display:inline;fill:none;stroke:#000000;stroke-width:1.85191;stroke-opacity:1"
       d="m 74.10192,219.01365 c 4.724962,-1.60683 7.807487,-3.51099 11.239367,-6.94288 3.55691,-3.5569 5.47113,-6.73216 6.99052,-11.5957 0.70248,-2.24862 0.83494,-3.43588 0.83494,-7.48339 0,-4.04751 -0.13246,-5.23479 -0.83494,-7.48339 -1.30989,-4.19294 -3.43177,-7.92293 -6.18298,-10.86889 -5.806701,-6.21777 -12.2722,-9.12331 -20.421178,-9.17712 -7.617021,-0.0503 -14.090994,2.5906 -19.413534,7.91931 -5.893345,5.90016 -8.467084,12.36211 -8.094383,20.3228 0.216732,4.62927 0.853012,7.06456 2.979384,11.40325 1.423154,2.90383 2.145131,3.86898 5.075918,6.78565 2.878442,2.86456 3.950156,3.66581 6.80212,5.08554 5.187225,2.58223 7.716028,3.12804 13.71955,2.96118 3.948332,-0.10982 5.472061,-0.30297 7.305216,-0.92636 z"
       id="path4" /><path
       d="m 68.518298,31.992362 c -6.607781,-0.229205 -9.681271,0.150476 -11.589473,1.432471 -1.186064,0.796837 -2.232422,2.814981 -2.232422,4.306197 0,0.616287 3.425741,4.535292 12.687081,14.513843 6.977714,7.518446 12.909097,13.999787 13.181107,14.403255 0.9709,1.440144 1.261668,4.332957 0.655258,6.5226 -0.72532,2.618992 -1.288257,4.097741 -1.656747,4.352189 -0.16336,0.112796 -4.101268,5.391992 -8.750887,11.731583 -4.649618,6.339592 -8.89305,11.84952 -9.429398,12.24421 C 59.186931,103.11463 53.6947,102.4831 50.90697,100.29414 48.890896,98.711085 23.325609,79.864825 22.215698,79.14349 21.052631,78.387608 18.69987,78.257049 17.530196,78.88304 c -0.479974,0.256875 -1.236689,1.19543 -1.681551,2.086178 -0.741352,1.484415 -0.790117,1.9296 -0.581877,5.333008 1.3001,21.248484 15.33574,39.479194 35.456234,46.054034 7.278064,2.37836 15.54338,3.08312 23.270414,1.98438 2.666697,-0.37921 5.210156,-0.53975 6.468339,-0.40825 2.14682,0.22439 6.629551,1.84211 8.769491,3.16467 l 1.225765,0.75757 -1.697054,1.49345 c -2.23608,1.96765 -4.89577,3.27938 -7.62124,3.75946 -1.910583,0.33655 -2.840972,0.27503 -6.756177,-0.44958 -5.813364,-1.07592 -13.463654,-1.1423 -18.794719,-0.16278 -21.249649,3.90437 -37.48455,19.88019 -41.763342,41.09723 -0.896705,4.44611 -0.895043,15.12613 0.0031,19.33939 4.540598,21.30025 20.108457,36.81964 41.130823,41.00318 5.414278,1.07813 13.71423,1.08064 19.075838,0.006 9.317616,-1.8672 17.400466,-5.80709 24.445536,-11.91555 8.558684,-7.42084 14.811334,-18.40281 16.629474,-29.207 1.2471,-7.41086 1.93826,-9.99951 3.20446,-12.00237 0.70342,-1.11268 13.69687,-13.54826 14.45596,-13.83533 0.4444,-0.16806 15.52292,14.10018 16.30909,15.43265 1.16165,1.96886 1.86695,4.68683 3.06906,11.83028 2.17529,12.92665 10.41723,25.5264 21.65087,33.09824 7.12709,4.80389 15.46622,7.81606 24.1515,8.7235 6.43319,0.67203 15.18104,-0.42259 21.80436,-2.728 17.25634,-6.00654 29.72127,-20.43559 33.67443,-38.98005 0.89877,-4.21326 0.90077,-14.89277 0.004,-19.33887 -4.2788,-21.21703 -20.5137,-37.19286 -41.76334,-41.09723 -5.33107,-0.97952 -12.98136,-0.91366 -18.79472,0.16226 -5.27295,0.9759 -7.64618,0.7739 -10.86807,-0.92501 -2.29813,-1.2118 -6.96134,-5.12682 -6.57118,-5.51697 0.7211,-0.72109 6.60518,-2.79653 8.48579,-2.9931 1.28391,-0.13419 3.79975,0.0229 6.49159,0.40566 7.72705,1.09874 15.99235,0.39398 23.27042,-1.98438 20.12046,-6.57506 34.15562,-24.80606 35.45571,-46.054549 0.20825,-3.403408 0.16,-3.848592 -0.58136,-5.333008 -0.44484,-0.890749 -1.20157,-1.829301 -1.68155,-2.086178 -1.16966,-0.625989 -3.52242,-0.495431 -4.6855,0.260449 -1.1099,0.721335 -26.67519,19.567598 -28.69127,21.150646 -2.78773,2.18897 -8.28046,2.8205 -10.47636,1.20458 -0.53635,-0.3947 -4.77927,-5.904621 -9.42889,-12.244215 -4.64962,-6.339591 -8.58754,-11.618784 -8.75088,-11.731584 -0.36849,-0.254448 -0.93143,-1.733195 -1.65675,-4.352189 -0.60641,-2.189642 -0.31616,-5.082454 0.65474,-6.522599 0.27201,-0.403466 6.2039,-6.884811 13.18163,-14.403255 9.26129,-9.979001 12.68656,-13.898071 12.68656,-14.51436 0,-1.491214 -1.04583,-3.509359 -2.2319,-4.306197 -1.90819,-1.281997 -4.9817,-1.661678 -11.58948,-1.432471 -8.55048,0.296592 -13.98187,1.662209 -21.3713,5.374349 -4.96592,2.494676 -9.10022,5.48094 -13.12995,9.483143 -8.31857,8.261749 -13.42654,18.594308 -14.75672,29.850374 -0.63576,5.379729 -1.33918,8.294737 -2.48357,10.294979 -0.70323,1.229126 -2.75222,3.381775 -6.19136,6.503479 -2.82737,2.5664 -5.24996,4.666382 -5.38313,4.666382 -0.13316,0 -2.78303,-2.323717 -5.88853,-5.16351 -7.52642,-6.882449 -7.47519,-6.78106 -9.06146,-17.999418 -2.32788,-16.463134 -12.68965,-30.7908 -27.733194,-38.348047 -7.38943,-3.71214 -12.82031,-5.077756 -21.370789,-5.374349 z"
       style="display:inline;fill:none;stroke:#000000;stroke-width:1.85191"
       id="path2" /></g></svg>
