<?xml version="1.0" encoding="UTF-8" standalone="no"?>
<!-- Created with Inkscape (http://www.inkscape.org/) -->

<svg
   width="1080"
   height="1080"
   viewBox="0 0 285.75 285.75"
   version="1.1"
   id="svg1"
   xml:space="preserve"
   inkscape:version="1.4.2 (ebf0e940, 2025-05-08)"
   sodipodi:docname="ServiceIt2.svg"
   xmlns:inkscape="http://www.inkscape.org/namespaces/inkscape"
   xmlns:sodipodi="http://sodipodi.sourceforge.net/DTD/sodipodi-0.dtd"
   xmlns="http://www.w3.org/2000/svg"
   xmlns:svg="http://www.w3.org/2000/svg"><sodipodi:namedview
     id="namedview1"
     pagecolor="#ffffff"
     bordercolor="#000000"
     borderopacity="0.25"
     inkscape:showpageshadow="2"
     inkscape:pageopacity="0.0"
     inkscape:pagecheckerboard="0"
     inkscape:deskcolor="#d1d1d1"
     inkscape:document-units="mm"
     inkscape:zoom="0.50016297"
     inkscape:cx="596.80548"
     inkscape:cy="480.84327"
     inkscape:window-width="1464"
     inkscape:window-height="942"
     inkscape:window-x="0"
     inkscape:window-y="31"
     inkscape:window-maximized="0"
     inkscape:current-layer="svg1"
     showgrid="false" /><defs
     id="defs1" /><g
     inkscape:groupmode="layer"
     id="layer2"
     inkscape:label="Layer 2"><path
       style="display:inline;fill:#000000;fill-opacity:1;stroke:#000000;stroke-width:1.86897;stroke-dasharray:none;stroke-opacity:1"
       d="m 191.4896,244.28278 c -19.61732,-5.14087 -33.203,-19.82182 -37.58285,-40.61276 -0.93947,-4.45962 -2.00284,-8.88357 -2.36305,-9.83098 -0.63156,-1.66114 -17.61767,-18.27759 -35.74414,-34.96625 -4.8063,-4.42505 -12.04196,-11.11368 -16.079251,-14.8636 -5.021813,-4.66436 -8.775923,-7.50619 -11.884663,-8.99656 -4.85887,-2.32942 -4.87157,-2.33064 -20.273837,-1.94004 -15.005108,0.38052 -27.233145,-4.69517 -37.597598,-15.60624 -7.924472,-8.34241 -12.978156,-19.250507 -13.884126,-29.968125 -0.493177,-5.834259 0.298667,-8.199596 2.744256,-8.19747 0.900129,9.89e-4 7.548401,4.447643 15.879874,10.621651 7.882331,5.841173 15.420452,11.188654 16.751393,11.883314 1.411415,0.73666 3.906162,1.26301 5.986307,1.26301 4.364794,0 4.187759,0.17287 15.585322,-15.218922 6.798312,-9.180754 8.580189,-12.079342 9.241079,-15.032479 0.65746,-2.937881 0.63231,-4.101662 -0.12767,-5.907771 -0.52054,-1.23705 -6.451824,-8.268172 -13.18064,-15.624718 -6.728815,-7.356546 -12.516557,-13.870156 -12.861642,-14.47469 -0.462375,-0.809992 -0.10383,-1.549538 1.362925,-2.811185 1.945755,-1.673665 2.194834,-1.703998 11.113899,-1.353432 10.076823,0.396074 13.426208,1.282105 22.234188,5.881751 3.49665,1.825993 6.92845,4.490214 11.078674,8.600718 9.08022,8.993344 12.69341,16.313242 15.00474,30.397788 1.44882,8.828725 2.54666,10.764536 9.79085,17.264107 2.71797,2.438587 11.8159,10.725673 20.21764,18.415753 8.40173,7.69008 18.13252,16.45853 21.62395,19.48546 3.49145,3.02693 6.58573,5.91203 6.87619,6.41134 0.29045,0.4993 2.44982,2.19109 4.79857,3.75953 4.86246,3.24703 5.9201,3.36816 18.0931,2.07231 15.76805,-1.67855 29.80163,3.35205 41.22884,14.77928 6.0312,6.03118 9.17397,10.98042 12.12317,19.09158 1.74482,4.79876 2.1262,7.04538 2.39318,14.09764 0.39247,10.36719 -0.68646,15.54795 -5.15627,24.75915 -2.69461,5.55294 -4.19456,7.59018 -9.58893,13.02378 -5.5261,5.56628 -7.29673,6.87189 -13.03608,9.61243 -3.65279,1.7442 -8.90569,3.66971 -11.67312,4.2789 -6.78726,1.49407 -16.75473,1.36707 -23.09428,-0.29427 z m 23.93138,-21.64318 c 3.16178,-1.23637 5.41587,-2.86151 9.1546,-6.60025 6.65993,-6.65992 8.27718,-10.62239 8.30169,-20.34017 0.0161,-6.39367 -0.16751,-7.37923 -2.1494,-11.53511 -2.84693,-5.96979 -8.32893,-11.46573 -14.22226,-14.25841 -4.26159,-2.01945 -5.11596,-2.17039 -12.28489,-2.17039 -7.31649,0 -7.94289,0.11723 -12.4297,2.32607 -6.0118,2.9596 -10.93294,7.88074 -13.89253,13.89254 -2.20885,4.48681 -2.32608,5.11321 -2.32608,12.4297 0,6.89602 0.19667,8.12438 1.87362,11.70226 2.03734,4.34678 7.09613,10.19773 10.79197,12.48188 1.2804,0.79134 3.98795,2.0504 6.01677,2.79793 5.20236,1.91684 15.29269,1.57072 21.16621,-0.72605 z"
       id="path7" /></g></svg>
